<svg height="502.624pt" viewBox="0 0 502.624 502.624" width="502.624pt" xmlns="http://www.w3.org/2000/svg"><path d="m131.3125 211.3125c0 44.113281 35.886719 80 80 80s80-35.886719 80-80-35.886719-80-80-80-80 35.886719-80 80zm144 0c0 1.503906-.121094 2.976562-.222656 4.457031l-58.121094-58.113281-11.3125 11.3125 65.320312 65.320312c-2.273437 5.871094-5.367187 11.320313-9.175781 16.207032l-68.832031-68.839844-11.3125 11.3125 68.832031 68.839844c-4.886719 3.800781-10.335937 6.894531-16.199219 9.167968l-65.320312-65.320312-11.3125 11.3125 58.121094 58.121094c-1.480469.101562-2.960938.222656-4.464844.222656-35.289062 0-64-28.710938-64-64s28.710938-64 64-64 64 28.710938 64 64zm0 0"/><path d="m51.3125 43.3125c0 4.417969-3.582031 8-8 8s-8-3.582031-8-8 3.582031-8 8-8 8 3.582031 8 8zm0 0"/><path d="m283.3125 0-104.046875 104.039062c-9.769531 2.929688-18.945313 7.191407-27.402344 12.519532l-23.046875-23.046875 8-8-82.191406-82.199219h-3.3125c-26.472656 0-48 21.527344-48 48v3.3125l82.199219 82.191406 8-8 23.046875 23.046875c-5.328125 8.457031-9.597656 17.632813-12.519532 27.402344l-104.039062 104.046875 219.3125 219.3125 283.3125-283.3125zm39.824219 207.824219c-1.535157-49.496094-35.25-90.945313-80.9375-104.082031l41.113281-41.117188 156.6875 156.6875-52.6875 52.6875zm-15.824219 3.488281c0 52.933594-43.066406 96-96 96-52.9375 0-96-43.066406-96-96 0-52.9375 43.0625-96 96-96 52.933594 0 96 43.0625 96 96zm-259.160156-191.839844 39.847656 39.839844-28.6875 28.6875-39.839844-39.847656c1.488282-15.128906 13.550782-27.199219 28.679688-28.679688zm22.472656 79.839844 28.6875-28.6875 14.886719 14.878906-28.6875 28.6875zm34.199219 18.191406 12.6875-12.6875 21.289062 21.289063c-4.5625 3.886719-8.800781 8.125-12.6875 12.6875zm-82.199219 165.808594 76.933594-76.9375c-.070313 1.648438-.246094 3.273438-.246094 4.9375 0 61.757812 50.238281 112 112 112 15.527344 0 30.320312-3.183594 43.765625-8.921875l54.578125 54.578125 11.3125-11.3125-51.074219-51.070312c5.175781-3.195313 10.074219-6.761719 14.648438-10.730469l49.113281 49.113281 11.3125-11.3125-49.113281-49.113281c3.96875-4.574219 7.535156-9.472657 10.730469-14.648438l51.070312 51.074219 11.3125-11.3125-54.578125-54.578125c3.496094-8.199219 5.921875-16.941406 7.371094-26l65.550781 65.546875 75.3125-75.3125-179.3125-179.3125-59.984375 59.984375c-3.953125-.425781-7.953125-.671875-12.015625-.671875-1.664062 0-3.289062.175781-4.945312.246094l76.945312-76.933594 196.6875 196.6875-260.6875 260.6875zm0 0"/><path d="m243.3125 371.152344-36.878906-7.375-25.320313-16.882813-66.457031 11.082031 104.65625 104.648438 83.3125-83.3125-16.679688-16.6875zm-37.367188 8.839844 21.144532 4.230468-31.777344 31.777344-12.6875-12.6875zm-28.441406-16.265626 13.25 8.832032-19.441406 19.441406-23.351562-23.351562zm41.808594 76.273438-12.6875-12.6875 40.632812-40.632812 31.710938-6.34375zm0 0"/><path d="m45.652344 288.964844 11.3125-11.3125 11.3125 11.3125-11.3125 11.316406zm0 0"/><path d="m68.28125 311.589844 11.3125-11.316406 11.316406 11.316406-11.316406 11.3125zm0 0"/><path d="m90.898438 334.242188 11.3125-11.316407 10.742187 10.742188-11.3125 11.3125zm0 0"/></svg>